<mxfile host="app.diagrams.net" modified="2021-10-27T09:08:02.993Z" agent="5.0 (Windows NT 10.0; Win64; x64) AppleWebKit/537.36 (KHTML, like Gecko) Chrome/95.0.4638.54 Safari/537.36" etag="_HGCgya5nOgAPpg0T5B9" version="15.5.9" type="github">
  <diagram id="C5RBs43oDa-KdzZeNtuy" name="Page-1">
    <mxGraphModel dx="1221" dy="681" grid="1" gridSize="10" guides="1" tooltips="1" connect="1" arrows="1" fold="1" page="1" pageScale="1" pageWidth="827" pageHeight="1169" math="0" shadow="0">
      <root>
        <mxCell id="WIyWlLk6GJQsqaUBKTNV-0" />
        <mxCell id="WIyWlLk6GJQsqaUBKTNV-1" parent="WIyWlLk6GJQsqaUBKTNV-0" />
        <mxCell id="Srwy25jBpxdedoV29NSV-6" style="edgeStyle=orthogonalEdgeStyle;rounded=0;orthogonalLoop=1;jettySize=auto;html=1;exitX=0.5;exitY=1;exitDx=0;exitDy=0;entryX=0.5;entryY=0;entryDx=0;entryDy=0;fontFamily=Courier New;fontSize=14;" edge="1" parent="WIyWlLk6GJQsqaUBKTNV-1" source="Srwy25jBpxdedoV29NSV-0" target="Srwy25jBpxdedoV29NSV-5">
          <mxGeometry relative="1" as="geometry" />
        </mxCell>
        <mxCell id="Srwy25jBpxdedoV29NSV-11" style="edgeStyle=orthogonalEdgeStyle;rounded=0;orthogonalLoop=1;jettySize=auto;html=1;exitX=1;exitY=0.5;exitDx=0;exitDy=0;fontFamily=Helvetica;fontSize=15;entryX=1;entryY=0.5;entryDx=0;entryDy=0;" edge="1" parent="WIyWlLk6GJQsqaUBKTNV-1" source="Srwy25jBpxdedoV29NSV-0" target="Srwy25jBpxdedoV29NSV-0">
          <mxGeometry relative="1" as="geometry">
            <mxPoint x="330" y="175" as="targetPoint" />
            <Array as="points" />
          </mxGeometry>
        </mxCell>
        <mxCell id="Srwy25jBpxdedoV29NSV-13" style="edgeStyle=orthogonalEdgeStyle;rounded=0;orthogonalLoop=1;jettySize=auto;html=1;exitX=1;exitY=0.5;exitDx=0;exitDy=0;entryX=0.004;entryY=0.618;entryDx=0;entryDy=0;entryPerimeter=0;fontFamily=Helvetica;fontSize=15;" edge="1" parent="WIyWlLk6GJQsqaUBKTNV-1" source="Srwy25jBpxdedoV29NSV-0" target="Srwy25jBpxdedoV29NSV-10">
          <mxGeometry relative="1" as="geometry" />
        </mxCell>
        <mxCell id="Srwy25jBpxdedoV29NSV-0" value="&lt;p style=&quot;margin: 4px 0px 0px ; text-align: center ; font-size: 11px&quot;&gt;&lt;font face=&quot;Courier New&quot; style=&quot;font-size: 11px&quot;&gt;&amp;lt;&amp;lt; boundary &amp;gt;&amp;gt;&lt;br&gt;&lt;/font&gt;&lt;/p&gt;&lt;p style=&quot;margin: 4px 0px 0px ; text-align: center&quot;&gt;&lt;font face=&quot;Courier New&quot; size=&quot;1&quot;&gt;&lt;b style=&quot;font-size: 15px&quot;&gt;ViewBook&lt;/b&gt;&lt;/font&gt;&lt;/p&gt;&lt;hr size=&quot;1&quot; style=&quot;font-size: 11px&quot;&gt;&lt;p style=&quot;margin: 0px ; margin-left: 4px&quot;&gt;&lt;br&gt;&lt;/p&gt;&lt;hr size=&quot;1&quot;&gt;&lt;p style=&quot;margin: 0px ; margin-left: 4px&quot;&gt;+ add(page: AdminBookPage): void&lt;/p&gt;" style="verticalAlign=top;align=left;overflow=fill;fontSize=12;fontFamily=Helvetica;html=1;" vertex="1" parent="WIyWlLk6GJQsqaUBKTNV-1">
          <mxGeometry x="80" y="150" width="240" height="130" as="geometry" />
        </mxCell>
        <mxCell id="Srwy25jBpxdedoV29NSV-7" style="edgeStyle=orthogonalEdgeStyle;rounded=0;orthogonalLoop=1;jettySize=auto;html=1;exitX=1;exitY=0.5;exitDx=0;exitDy=0;fontFamily=Courier New;fontSize=14;entryX=1;entryY=0.5;entryDx=0;entryDy=0;" edge="1" parent="WIyWlLk6GJQsqaUBKTNV-1" source="Srwy25jBpxdedoV29NSV-5" target="Srwy25jBpxdedoV29NSV-5">
          <mxGeometry relative="1" as="geometry">
            <mxPoint x="480" y="440" as="targetPoint" />
          </mxGeometry>
        </mxCell>
        <mxCell id="Srwy25jBpxdedoV29NSV-12" style="edgeStyle=orthogonalEdgeStyle;rounded=0;orthogonalLoop=1;jettySize=auto;html=1;exitX=1;exitY=0.5;exitDx=0;exitDy=0;entryX=1;entryY=0.5;entryDx=0;entryDy=0;fontFamily=Helvetica;fontSize=15;" edge="1" parent="WIyWlLk6GJQsqaUBKTNV-1" source="Srwy25jBpxdedoV29NSV-5" target="Srwy25jBpxdedoV29NSV-5">
          <mxGeometry relative="1" as="geometry" />
        </mxCell>
        <mxCell id="Srwy25jBpxdedoV29NSV-14" style="edgeStyle=orthogonalEdgeStyle;rounded=0;orthogonalLoop=1;jettySize=auto;html=1;exitX=1;exitY=0;exitDx=0;exitDy=0;entryX=0.5;entryY=1;entryDx=0;entryDy=0;fontFamily=Helvetica;fontSize=15;" edge="1" parent="WIyWlLk6GJQsqaUBKTNV-1" source="Srwy25jBpxdedoV29NSV-5" target="Srwy25jBpxdedoV29NSV-10">
          <mxGeometry relative="1" as="geometry" />
        </mxCell>
        <mxCell id="Srwy25jBpxdedoV29NSV-18" style="edgeStyle=orthogonalEdgeStyle;rounded=0;orthogonalLoop=1;jettySize=auto;html=1;exitX=1;exitY=0.5;exitDx=0;exitDy=0;entryX=0;entryY=0.25;entryDx=0;entryDy=0;fontFamily=Helvetica;fontSize=15;" edge="1" parent="WIyWlLk6GJQsqaUBKTNV-1" source="Srwy25jBpxdedoV29NSV-5" target="Srwy25jBpxdedoV29NSV-16">
          <mxGeometry relative="1" as="geometry" />
        </mxCell>
        <mxCell id="Srwy25jBpxdedoV29NSV-5" value="&lt;p style=&quot;margin: 0px ; margin-top: 4px ; text-align: center&quot;&gt;&lt;font face=&quot;Courier New&quot;&gt;&amp;lt;&amp;lt; control &amp;gt;&amp;gt;&lt;/font&gt;&lt;/p&gt;&lt;p style=&quot;margin: 0px ; margin-top: 4px ; text-align: center&quot;&gt;&lt;b&gt;&lt;font style=&quot;font-size: 15px&quot; face=&quot;Courier New&quot;&gt;OMSAdminController&lt;/font&gt;&lt;/b&gt;&lt;/p&gt;&lt;hr size=&quot;1&quot;&gt;&lt;p style=&quot;margin: 0px ; margin-left: 4px&quot;&gt;&lt;br&gt;&lt;/p&gt;&lt;hr size=&quot;1&quot;&gt;&lt;p style=&quot;margin: 0px ; margin-left: 4px&quot;&gt;+ getBookPage(): AdminBookPage&lt;/p&gt;&lt;p style=&quot;margin: 0px ; margin-left: 4px&quot;&gt;&lt;br&gt;&lt;/p&gt;" style="verticalAlign=top;align=left;overflow=fill;fontSize=12;fontFamily=Helvetica;html=1;" vertex="1" parent="WIyWlLk6GJQsqaUBKTNV-1">
          <mxGeometry x="80" y="440" width="240" height="120" as="geometry" />
        </mxCell>
        <mxCell id="Srwy25jBpxdedoV29NSV-8" value="&lt;p style=&quot;margin: 0px ; margin-top: 4px ; text-align: center&quot;&gt;&lt;font face=&quot;Courier New&quot;&gt;&amp;lt;&amp;lt; entity &amp;gt;&amp;gt;&lt;/font&gt;&lt;/p&gt;&lt;p style=&quot;margin: 4px 0px 0px ; text-align: center ; font-size: 15px&quot;&gt;&lt;b&gt;&lt;font style=&quot;font-size: 15px&quot; face=&quot;Courier New&quot;&gt;Book&lt;/font&gt;&lt;/b&gt;&lt;/p&gt;&lt;hr size=&quot;1&quot; style=&quot;font-size: 15px&quot;&gt;&lt;p style=&quot;margin: 0px ; margin-left: 4px&quot;&gt;&lt;br&gt;&lt;/p&gt;&lt;hr size=&quot;1&quot;&gt;&lt;p style=&quot;margin: 0px ; margin-left: 4px&quot;&gt;+ Book(): void&lt;/p&gt;&lt;p style=&quot;margin: 0px ; margin-left: 4px&quot;&gt;+ search(params: Map&amp;lt;String,String&amp;gt;): List&amp;lt;Book&amp;gt;&lt;/p&gt;" style="verticalAlign=top;align=left;overflow=fill;fontSize=12;fontFamily=Helvetica;html=1;" vertex="1" parent="WIyWlLk6GJQsqaUBKTNV-1">
          <mxGeometry x="880" y="440" width="280" height="120" as="geometry" />
        </mxCell>
        <mxCell id="Srwy25jBpxdedoV29NSV-15" style="edgeStyle=orthogonalEdgeStyle;rounded=0;orthogonalLoop=1;jettySize=auto;html=1;exitX=0.75;exitY=1;exitDx=0;exitDy=0;fontFamily=Helvetica;fontSize=15;" edge="1" parent="WIyWlLk6GJQsqaUBKTNV-1" source="Srwy25jBpxdedoV29NSV-10">
          <mxGeometry relative="1" as="geometry">
            <mxPoint x="680" y="440" as="targetPoint" />
          </mxGeometry>
        </mxCell>
        <mxCell id="Srwy25jBpxdedoV29NSV-10" value="&lt;p style=&quot;margin: 4px 0px 0px ; text-align: center ; font-size: 11px&quot;&gt;&lt;font face=&quot;Courier New&quot; style=&quot;font-size: 11px&quot;&gt;&amp;lt;&amp;lt; boundary &amp;gt;&amp;gt;&lt;br&gt;&lt;/font&gt;&lt;/p&gt;&lt;p style=&quot;margin: 4px 0px 0px ; text-align: center ; font-size: 15px&quot;&gt;&lt;font face=&quot;Courier New&quot; style=&quot;font-size: 15px&quot;&gt;&lt;b&gt;AdminBookPage&lt;/b&gt;&lt;/font&gt;&lt;/p&gt;&lt;hr size=&quot;1&quot; style=&quot;font-size: 15px&quot;&gt;&lt;p style=&quot;margin: 0px ; margin-left: 4px&quot;&gt;- pageController: AdminBookPageController&lt;/p&gt;&lt;hr size=&quot;1&quot;&gt;&lt;p style=&quot;margin: 0px ; margin-left: 4px&quot;&gt;+ AdminBookPage(): void&lt;/p&gt;&lt;p style=&quot;margin: 0px ; margin-left: 4px&quot;&gt;+ createSearchInterface(): void&lt;/p&gt;&lt;p style=&quot;margin: 0px ; margin-left: 4px&quot;&gt;+ createBookListPane(): void&lt;/p&gt;&lt;p style=&quot;margin: 0px ; margin-left: 4px&quot;&gt;+ setController(controller: AdminBookPageController): void&lt;/p&gt;" style="verticalAlign=top;align=left;overflow=fill;fontSize=12;fontFamily=Helvetica;html=1;" vertex="1" parent="WIyWlLk6GJQsqaUBKTNV-1">
          <mxGeometry x="440" y="110" width="320" height="170" as="geometry" />
        </mxCell>
        <mxCell id="Srwy25jBpxdedoV29NSV-17" style="edgeStyle=orthogonalEdgeStyle;rounded=0;orthogonalLoop=1;jettySize=auto;html=1;exitX=1;exitY=0.25;exitDx=0;exitDy=0;entryX=0;entryY=0.5;entryDx=0;entryDy=0;fontFamily=Helvetica;fontSize=15;" edge="1" parent="WIyWlLk6GJQsqaUBKTNV-1" source="Srwy25jBpxdedoV29NSV-16" target="Srwy25jBpxdedoV29NSV-8">
          <mxGeometry relative="1" as="geometry" />
        </mxCell>
        <mxCell id="Srwy25jBpxdedoV29NSV-16" value="&lt;p style=&quot;margin: 0px ; margin-top: 4px ; text-align: center&quot;&gt;&lt;font face=&quot;Courier New&quot;&gt;&amp;lt;&amp;lt; control &amp;gt;&amp;gt;&lt;/font&gt;&lt;/p&gt;&lt;p style=&quot;margin: 0px ; margin-top: 4px ; text-align: center&quot;&gt;&lt;b&gt;&lt;font style=&quot;font-size: 15px&quot; face=&quot;Courier New&quot;&gt;AdminBookPageController&lt;/font&gt;&lt;/b&gt;&lt;/p&gt;&lt;hr size=&quot;1&quot;&gt;&lt;p style=&quot;margin: 0px ; margin-left: 4px&quot;&gt;+ adminBookPage: AdminBookPage&lt;/p&gt;&lt;p style=&quot;margin: 0px ; margin-left: 4px&quot;&gt;+ book: Book&lt;/p&gt;&lt;hr size=&quot;1&quot;&gt;&lt;p style=&quot;margin: 0px ; margin-left: 4px&quot;&gt;+ AdminBookPageController(): void&lt;/p&gt;&lt;p style=&quot;margin: 0px ; margin-left: 4px&quot;&gt;+ setAdminBookPage(adminBookPage: AdminBookPage): void&lt;/p&gt;&lt;p style=&quot;margin: 0px ; margin-left: 4px&quot;&gt;+ setBook(book: Book): void&amp;nbsp;&lt;/p&gt;&amp;nbsp;+ search(params: Map&amp;lt;String,String&amp;gt;): List&amp;lt;Book&amp;gt;" style="verticalAlign=top;align=left;overflow=fill;fontSize=12;fontFamily=Helvetica;html=1;" vertex="1" parent="WIyWlLk6GJQsqaUBKTNV-1">
          <mxGeometry x="440" y="440" width="360" height="240" as="geometry" />
        </mxCell>
      </root>
    </mxGraphModel>
  </diagram>
</mxfile>
